M48
; DRILL file {KiCad 7.0.2} date Sun May 21 19:22:29 2023
; FORMAT={-:-/ absolute / metric / decimal}
; #@! TF.CreationDate,2023-05-21T19:22:29+01:00
; #@! TF.GenerationSoftware,Kicad,Pcbnew,7.0.2
; #@! TF.FileFunction,Plated,1,2,PTH
FMAT,2
METRIC
; #@! TA.AperFunction,Plated,PTH,ComponentDrill
T1C0.800
; #@! TA.AperFunction,Plated,PTH,ComponentDrill
T2C0.900
; #@! TA.AperFunction,Plated,PTH,ComponentDrill
T3C1.000
; #@! TA.AperFunction,Plated,PTH,ComponentDrill
T4C1.016
; #@! TA.AperFunction,Plated,PTH,ComponentDrill
T5C1.300
; #@! TA.AperFunction,Plated,PTH,ComponentDrill
T6C1.600
%
G90
G05
T1
X96.515Y-71.12
X104.135Y-71.12
X105.395Y-86.36
X105.395Y-93.98
T2
X92.695Y-93.98
X95.235Y-93.98
X160.005Y-100.33
X160.005Y-109.22
X162.545Y-100.33
X162.545Y-109.22
T3
X92.695Y-68.58
X92.695Y-71.12
X125.715Y-111.76
X125.745Y-96.52
X128.255Y-111.76
X128.285Y-96.52
X130.795Y-111.76
X130.825Y-96.52
X133.335Y-111.76
X133.365Y-96.52
X135.875Y-111.76
X135.905Y-96.52
X138.415Y-111.76
X138.445Y-96.52
X140.955Y-111.76
X140.985Y-96.52
X143.495Y-71.12
X143.495Y-111.76
X143.525Y-96.52
X146.035Y-71.12
X148.575Y-71.12
X156.195Y-71.12
X158.735Y-71.12
X161.275Y-71.12
X161.295Y-88.9
X168.895Y-88.9
T4
X114.765Y-76.2
X114.765Y-91.44
X117.305Y-76.2
X117.305Y-91.44
X119.846Y-76.2
X119.846Y-91.44
X122.385Y-76.2
X122.385Y-91.44
X124.925Y-76.2
X124.925Y-91.44
X127.465Y-76.2
X127.465Y-91.44
X130.005Y-76.2
X130.005Y-91.44
X132.546Y-76.2
X132.546Y-91.44
X135.085Y-76.2
X135.085Y-91.44
X137.625Y-76.2
X137.625Y-91.44
X140.165Y-76.2
X140.165Y-91.44
X142.706Y-76.2
X142.706Y-91.44
X145.245Y-76.2
X145.245Y-91.44
X147.785Y-76.2
X147.785Y-91.44
X150.326Y-76.2
X150.326Y-91.44
T5
X125.795Y-124.46
X130.795Y-124.46
X138.415Y-124.46
X143.415Y-124.46
T6
X90.355Y-81.28
X93.355Y-85.98
X96.355Y-81.28
T0
M30
